<?xml version="1.0" encoding="UTF-8" standalone="no"?>
<!-- Generator: Adobe Illustrator 16.0.0, SVG Export Plug-In . SVG Version: 6.00 Build 0)  -->

<svg
   xmlns:dc="http://purl.org/dc/elements/1.1/"
   xmlns:cc="http://creativecommons.org/ns#"
   xmlns:rdf="http://www.w3.org/1999/02/22-rdf-syntax-ns#"
   xmlns:svg="http://www.w3.org/2000/svg"
   xmlns="http://www.w3.org/2000/svg"
   xmlns:sodipodi="http://sodipodi.sourceforge.net/DTD/sodipodi-0.dtd"
   xmlns:inkscape="http://www.inkscape.org/namespaces/inkscape"
   version="1.1"
   id="Capa_1"
   x="0px"
   y="0px"
   width="561.803px"
   height="561.802px"
   viewBox="0 0 561.803 561.802"
   style="enable-background:new 0 0 561.803 561.802;"
   xml:space="preserve"
   sodipodi:docname="right.svg"
   inkscape:version="0.92.3 (2405546, 2018-03-11)"><metadata
   id="metadata43"><rdf:RDF><cc:Work
       rdf:about=""><dc:format>image/svg+xml</dc:format><dc:type
         rdf:resource="http://purl.org/dc/dcmitype/StillImage" /><dc:title></dc:title></cc:Work></rdf:RDF></metadata><defs
   id="defs41" /><sodipodi:namedview
   pagecolor="#ffffff"
   bordercolor="#666666"
   borderopacity="1"
   objecttolerance="10"
   gridtolerance="10"
   guidetolerance="10"
   inkscape:pageopacity="0"
   inkscape:pageshadow="2"
   inkscape:window-width="983"
   inkscape:window-height="480"
   id="namedview39"
   showgrid="false"
   inkscape:zoom="0.42007682"
   inkscape:cx="280.90149"
   inkscape:cy="280.901"
   inkscape:window-x="67"
   inkscape:window-y="27"
   inkscape:window-maximized="0"
   inkscape:current-layer="Capa_1" />
<g
   id="g6"
   transform="matrix(-1,0,0,1,561.803,0)">
	<g
   id="g4">
		<polygon
   points="240.773,411.322 561.803,411.322 561.803,152.994 240.773,152.994 240.773,40.128 0,280.905 240.773,521.674 "
   id="polygon2" />
	</g>
</g>
<g
   id="g8"
   transform="matrix(-1,0,0,1,561.803,0)">
</g>
<g
   id="g10"
   transform="matrix(-1,0,0,1,561.803,0)">
</g>
<g
   id="g12"
   transform="matrix(-1,0,0,1,561.803,0)">
</g>
<g
   id="g14"
   transform="matrix(-1,0,0,1,561.803,0)">
</g>
<g
   id="g16"
   transform="matrix(-1,0,0,1,561.803,0)">
</g>
<g
   id="g18"
   transform="matrix(-1,0,0,1,561.803,0)">
</g>
<g
   id="g20"
   transform="matrix(-1,0,0,1,561.803,0)">
</g>
<g
   id="g22"
   transform="matrix(-1,0,0,1,561.803,0)">
</g>
<g
   id="g24"
   transform="matrix(-1,0,0,1,561.803,0)">
</g>
<g
   id="g26"
   transform="matrix(-1,0,0,1,561.803,0)">
</g>
<g
   id="g28"
   transform="matrix(-1,0,0,1,561.803,0)">
</g>
<g
   id="g30"
   transform="matrix(-1,0,0,1,561.803,0)">
</g>
<g
   id="g32"
   transform="matrix(-1,0,0,1,561.803,0)">
</g>
<g
   id="g34"
   transform="matrix(-1,0,0,1,561.803,0)">
</g>
<g
   id="g36"
   transform="matrix(-1,0,0,1,561.803,0)">
</g>
</svg>